#!OML:ASF G:\ViconDB\ViconDB\414\test\team2\shane.ASF
:FULLY-SPECIFIED
:DEGREES
270
root 3.12366 16.478 10.5833 -10.8053 4.64884 -7.17314
lowerback 6.29937 0.871395 4.7873
upperback 5.57194 1.32971 3.63098
thorax 2.25894 0.755572 1.0126
lowerneck -15.9002 -6.36486 -7.78801
upperneck 17.4922 -9.13244 10.7984
head 8.9785 -3.73671 3.79159
rclavicle 1.22501e-014 -2.34566e-014
rhumerus -20.9675 -1.01311 -89.2612
rradius 29.7187
rwrist 34.8799
rhand -31.3512 -18.356
rfingers 7.12502
rthumb -4.62229 -48.2856
lclavicle 1.22501e-014 -2.34566e-014
lhumerus -40.3644 -20.3788 98.1715
lradius 21.0108
lwrist -9.06619
lhand -37.6396 9.78863
lfingers 7.12502
lthumb -10.6916 39.4966
rfemur 8.25485 -17.3654 25.6071
rtibia 32.6278
rfoot -27.141 1.65196
rtoes -7.42205
lfemur -14.8537 6.72137 -1.76775
ltibia 58.3652
lfoot -24.5174 -4.62925
ltoes -10.4451
271
root 3.12238 16.5264 10.7431 -10.762 4.39959 -7.06315
lowerback 6.31103 1.21873 4.97745
upperback 5.47029 1.80931 3.35958
thorax 2.17037 1.00417 0.60472
lowerneck -15.8787 -6.63423 -8.05076
upperneck 17.475 -9.49693 11.0393
head 9.03363 -3.90145 3.86623
rclavicle -1.81515e-014 7.15625e-015
rhumerus -20.7434 1.33499 -89.8468
rradius 30.5139
rwrist 32.4735
rhand -32.007 -18.8846
rfingers 7.12502
rthumb -5.25547 -48.7994
lclavicle -1.81515e-014 7.15625e-015
lhumerus -41.1215 -20.0922 97.7122
lradius 20.5444
lwrist -10.1496
lhand -37.2106 9.43753
lfingers 7.12502
lthumb -10.2778 39.1664
rfemur 9.61891 -17.2735 25.3555
rtibia 30.9642
rfoot -26.4157 1.60312
rtoes -9.09249
lfemur -15.4649 6.75325 -2.30356
ltibia 56.2347
lfoot -24.725 -5.02142
ltoes -10.4906
272
root 3.11877 16.5733 10.8984 -10.721 4.20562 -6.97399
lowerback 6.60249 1.50508 5.22226
upperback 5.21049 2.24002 2.95216
thorax 1.77608 1.22382 0.0149437
lowerneck -15.835 -6.82922 -8.0585
upperneck 17.6634 -9.87072 11.3925
head 9.15198 -4.03805 3.93898
rclavicle -1.81515e-014 7.15625e-015
rhumerus -20.7434 1.33499 -89.8468
rradius 30.5139
rwrist 32.4735
rhand -32.007 -18.8846
rfingers 7.12502
rthumb -5.25547 -48.7994
lclavicle -1.81515e-014 7.15625e-015
lhumerus -41.1215 -20.0922 97.7122
lradius 20.5444
lwrist -10.1496
lhand -37.2106 9.43753
lfingers 7.12502
lthumb -10.2778 39.1664
rfemur 10.9522 -17.1041 25.1892
rtibia 29.2405
rfoot -25.6209 1.71385
rtoes -10.396
lfemur -16.0511 6.65251 -2.84787
ltibia 54.0381
lfoot -25.0052 -5.45616
ltoes -10.7941
273
root 3.11575 16.6238 11.0585 -10.5536 3.99532 -6.73979
lowerback 5.9261 2.07685 3.64907
upperback 5.38143 2.87342 4.01892
thorax 2.2139 1.48619 1.99312
lowerneck -15.7406 -7.31547 -10.0704
upperneck 17.4363 -10.0087 11.2917
head 9.17167 -4.25534 4.21328
rclavicle -1.81515e-014 7.15625e-015
rhumerus -20.7434 1.33499 -89.8468
rradius 30.5139
rwrist 32.4735
rhand -32.007 -18.8846
rfingers 7.12502
rthumb -5.25547 -48.7994
lclavicle -1.81515e-014 7.15625e-015
lhumerus -41.1215 -20.0922 97.7122
lradius 20.5444
lwrist -10.1496
lhand -37.2106 9.43753
lfingers 7.12502
lthumb -10.2778 39.1664
rfemur 12.2521 -16.9121 24.8565
rtibia 27.3971
rfoot -24.6686 1.88949
rtoes -11.254
lfemur -16.6522 6.58395 -3.54403
ltibia 51.7642
lfoot -25.2681 -6.12324
ltoes -11.2136
274
root 3.11696 16.6679 11.2163 -10.3929 3.86953 -6.61067
lowerback 6.85324 2.11069 5.43103
upperback 4.66696 3.10324 2.25521
thorax 1.15623 1.65092 -0.884262
lowerneck -15.6638 -7.24021 -8.42636
upperneck 17.8855 -10.5336 12.0101
head 9.32994 -4.31038 4.12361
rclavicle -1.81515e-014 7.15625e-015
rhumerus -20.7434 1.33499 -89.8468
rradius 30.5139
rwrist 32.4735
rhand -32.007 -18.8846
rfingers 7.12502
rthumb -5.25547 -48.7994
lclavicle 1.45051e-014 -2.48481e-015
lhumerus -43.6252 -18.7197 95.4042
lradius 19.4135
lwrist -12.9703
lhand -35.9747 7.97504
lfingers 7.12502
lthumb -9.08539 37.7594
rfemur 13.5249 -16.7904 24.615
rtibia 25.5594
rfoot -23.8568 2.15284
rtoes -11.3324
lfemur -17.2679 6.48831 -4.15393
ltibia 49.5219
lfoot -25.7657 -7.14642
ltoes -10.6838
275
root 3.11463 16.7146 11.3782 -10.2187 3.74734 -6.31682
lowerback 5.91677 2.61776 3.36332
upperback 5.02838 3.60355 3.5662
thorax 1.85547 1.84655 1.64316
lowerneck -15.8756 -7.74815 -10.8216
upperneck 17.75 -10.5907 11.9144
head 9.45716 -4.50461 4.46766
rclavicle -1.81515e-014 7.15625e-015
rhumerus -20.7434 1.33499 -89.8468
rradius 30.5139
rwrist 32.4735
rhand -32.007 -18.8846
rfingers 7.12502
rthumb -5.25547 -48.7994
lclavicle 1.45051e-014 -2.48481e-015
lhumerus -43.6252 -18.7197 95.4042
lradius 19.4135
lwrist -12.9703
lhand -35.9747 7.97504
lfingers 7.12502
lthumb -9.08539 37.7594
rfemur 14.8411 -16.5407 24.2055
rtibia 23.6537
rfoot -22.8813 2.53173
rtoes -11.1033
lfemur -17.8298 6.33777 -4.8977
ltibia 47.2957
lfoot -26.1797 -8.38621
ltoes -10.5524
276
root 3.11711 16.745 11.5387 -10.1281 3.76278 -6.22861
lowerback 6.73981 2.60824 5.47567
upperback 4.41746 3.77027 1.5861
thorax 1.04612 1.9881 -1.63083
lowerneck -15.8221 -7.67431 -8.85556
upperneck 18.1038 -11.1963 12.6201
head 9.57983 -4.57394 4.30648
rclavicle 8.0806e-014 2.34566e-014
rhumerus -20.227 5.73534 -92.079
rradius 34.1796
rwrist 31.0844
rhand -32.8346 -18.9261
rfingers 7.12502
rthumb -6.05455 -48.8196
lclavicle 8.0806e-014 2.34566e-014
lhumerus -44.5793 -17.2606 93.408
lradius 19.1479
lwrist -14.1643
lhand -35.1323 7.88566
lfingers 7.12502
lthumb -8.27249 37.7037
rfemur 16.2213 -16.1985 24.0713
rtibia 21.7074
rfoot -21.9093 2.80743
rtoes -10.4121
lfemur -18.4274 6.23675 -5.40628
ltibia 45.2009
lfoot -26.7033 -9.93244
ltoes -10.5167
277
root 3.11649 16.7766 11.6998 -9.79881 3.51907 -5.84211
lowerback 6.81613 2.9292 5.30629
upperback 4.05449 4.20625 1.18233
thorax 0.674821 2.1924 -1.99085
lowerneck -15.7586 -7.86424 -9.14289
upperneck 18.3428 -11.5123 12.979
head 9.73359 -4.70007 4.43683
rclavicle 2.79541e-015 9.14409e-015
rhumerus -20.3201 6.69874 -92.4379
rradius 34.9058
rwrist 30.8839
rhand -32.7841 -18.6996
rfingers 7.12502
rthumb -6.00576 -48.5945
lclavicle 2.79541e-015 9.14409e-015
lhumerus -45.4351 -16.8072 92.6102
lradius 19.1047
lwrist -14.2367
lhand -35.4006 7.58819
lfingers 7.12502
lthumb -8.53141 37.3958
rfemur 17.455 -15.9046 23.6369
rtibia 19.6172
rfoot -20.9964 2.90617
rtoes -11.789
lfemur -19.1396 6.4281 -6.22341
ltibia 43.2048
lfoot -26.9733 -11.345
ltoes -10.4328
278
root 3.11521 16.8011 11.8611 -9.62929 3.38721 -5.63834
lowerback 6.95996 3.14719 5.16114
upperback 3.80709 4.50441 0.899496
thorax 0.371955 2.33037 -2.23522
lowerneck -15.8482 -8.02293 -9.32567
upperneck 18.6351 -11.7584 13.1286
head 9.90675 -4.79981 4.48342
rclavicle -3.74212e-014 -1.98785e-015
rhumerus -20.3043 8.3995 -92.7514
rradius 35.6603
rwrist 30.1628
rhand -32.8353 -18.6666
rfingers 7.12502
rthumb -6.05518 -48.56
lclavicle -3.74212e-014 -1.98785e-015
lhumerus -46.3133 -16.6175 92.1331
lradius 19.3485
lwrist -13.805
lhand -35.241 7.69686
lfingers 7.12502
lthumb -8.37732 37.5107
rfemur 18.9241 -15.5596 23.433
rtibia 17.3793
rfoot -20.1475 2.88945
rtoes -11.0804
lfemur -19.772 6.83783 -6.84855
ltibia 41.3798
lfoot -27.5165 -12.7511
ltoes -10.6306
279
root 3.11965 16.8249 12.0187 -9.36496 3.25341 -5.37295
lowerback 7.04074 3.39219 5.18987
upperback 3.54474 4.84266 0.515264
thorax 0.118002 2.49257 -2.67971
lowerneck -15.8804 -8.10546 -9.49278
upperneck 18.7417 -11.9294 13.4759
head 10.0098 -4.85058 4.6091
rclavicle 1.7754e-014 9.93923e-015
rhumerus -20.2795 9.72639 -93.0649
rradius 36.3798
rwrist 29.801
rhand -32.7064 -18.3587
rfingers 7.12502
rthumb -5.93079 -48.2557
lclavicle 1.7754e-014 9.93923e-015
lhumerus -46.8215 -15.9265 91.0662
lradius 19.334
lwrist -14.2728
lhand -35.1204 7.86794
lfingers 7.12502
lthumb -8.26099 37.6864
rfemur 20.5321 -15.5748 22.9139
rtibia 14.7481
rfoot -19.0785 3.31681
rtoes -11.6857
lfemur -20.4932 7.13183 -7.62892
ltibia 39.7201
lfoot -27.9063 -13.8414
ltoes -11.1389
280
root 3.11776 16.8384 12.1871 -9.19131 3.22689 -5.37399
lowerback 6.95691 3.55399 5.269
upperback 3.35071 5.06143 0.244464
thorax 0.0141446 2.59911 -3.01521
lowerneck -15.8693 -8.31378 -9.65504
upperneck 18.8993 -12.2473 13.6386
head 10.1293 -4.98816 4.64525
rclavicle 5.3647e-014 -2.42517e-014
rhumerus -20.1593 10.8664 -93.3433
rradius 37.1192
rwrist 29.3008
rhand -32.5029 -18.1258
rfingers 7.12502
rthumb -5.73429 -48.0282
lclavicle 5.3647e-014 -2.42517e-014
lhumerus -47.5073 -15.488 90.2457
lradius 19.4798
lwrist -14.1141
lhand -35.2234 7.53769
lfingers 7.12502
lthumb -8.36038 37.3522
rfemur 22.2816 -15.0412 23.0936
rtibia 11.7432
rfoot -17.76 3.24265
rtoes -10.9424
lfemur -21.1892 7.61801 -7.99614
ltibia 38.2618
lfoot -28.2617 -15.0581
ltoes -12.0792
